<svg version="1.2" xmlns="http://www.w3.org/2000/svg" viewBox="0 0 1258 1034" width="1258" height="1034">
	<title>New Project</title>
	<style>
		.s0 { fill: #000000;stroke: #000000;stroke-miterlimit:10 } 
	</style>
	<g id="Layer 1">
		<path id="Shape 1" fill-rule="evenodd" class="s0" d="m72 967.6l354-907.5 637.5-1.5c0 0 171-12.1 153 181.5-18 193.5-133.5 223.5-133.5 223.5 0 0 48 10.5 93 72 20 27.4 22.6 75.1 16.5 133.5-19.5 184.5-270 199.5-270 199.5l13.5-69c0 0 172-22 189-135 17-113-98.3-162.1-127.5-163.5-31.5-1.5-489 3-489 3 0 0-133.5-12-184.5 82.5-28.9 53.5-165 381-165 381zm412.5-538.5c24-4.5 512.9-0.2 543-4.5 0 0 39.7-23.7 76.5-73.5 21.2-28.8 34.8-63.1 42-103.5 16.8-95.3-73.5-118.5-73.5-118.5 0 0-514-0.5-543 1.5-29 1.9-57 28.5-57 28.5l-135 330c39-57 133.3-57.5 147-60z"/>
	</g>
</svg>